<?xml version="1.0" encoding="utf-8"?>
<!-- Generator: Adobe Illustrator 18.1.1, SVG Export Plug-In . SVG Version: 6.00 Build 0)  -->
<svg version="1.1" id="Layer_1" xmlns="http://www.w3.org/2000/svg" xmlns:xlink="http://www.w3.org/1999/xlink" x="0px" y="0px"
	 viewBox="180 56.7 481.9 481.9" enable-background="new 180 56.7 481.9 481.9" xml:space="preserve">
<g id="Слой_2">
	<g>
		<g>
			<path fill="#8D81AC" d="M419,131.7c22.8,0,41.7,22.2,41.7,49.6s-18.9,75.6-41.7,75.6c-22.8,0-41.7-48.3-41.7-75.6
				C377.9,153.8,396.2,131.7,419,131.7 M419,104.9c-37.8,0-68.5,33.9-68.5,76.3c0,35.9,23.5,102.4,68.5,102.4s68.5-66.5,68.5-102.4
				C488.1,138.8,456.8,104.9,419,104.9L419,104.9z"/>
		</g>
		<g>
			<path fill="#8D81AC" d="M472.5,353.4c26.7,18.9,43.7,70.4,43.7,110.2H322.5c0-39.8,17.6-91.3,43.7-110.2
				c15.7,9.8,33.9,15.7,53.5,15.7C438.6,369,456.8,363.2,472.5,353.4 M366.2,325.4c-5.2,0-11.1,2-15.7,5.2
				C316,355.4,295.7,418,295.7,463c0,15,11.7,27.4,26.7,27.4h194.3c15,0,26.7-13,26.7-27.4c0-45-20.9-107-54.8-131.7
				c-4.6-3.3-9.8-5.2-15.7-5.2c-5.2,0-9.8,1.3-14.3,3.9c-11.7,7.2-25.4,11.7-39.1,11.7c-13.7,0-26.7-3.9-39.1-11.7
				C375.9,327.3,371.4,325.4,366.2,325.4L366.2,325.4z"/>
		</g>
		<g>
			<path fill="#8D81AC" d="M351.2,449.3c-3.9,0-6.5-2.6-6.5-6.5c0-33.3,9.1-54.8,29.3-69.8c2-2,5.2-2,7.2,0
				c3.9,2.6,7.8,4.6,11.7,5.9c3.3,1.3,5.2,5.2,3.9,8.5c-1.3,3.3-5.2,5.2-8.5,3.9c-3.3-1.3-6.5-2.6-9.8-4.6
				c-14.3,11.7-20.9,29.3-20.9,56.1C357.7,446.7,355.1,449.3,351.2,449.3z"/>
		</g>
		<g>
			<path fill="#8D81AC" d="M419,397.7c-2.6,0-5.2,0-7.8-0.7c-3.9-0.7-6.5-3.9-5.9-7.2c0.7-3.9,3.9-6.5,7.2-5.9c2,0,4.6,0.7,6.5,0.7
				c3.9,0,6.5,2.6,6.5,6.5C426.2,394.5,422.9,397.7,419,397.7z"/>
		</g>
		<g>
			<path fill="#8D81AC" d="M619.8,477.3h-52.2c-7.2,0-13-5.9-13-13c0-7.2,5.9-13,13-13h37.8c-3.9-30-20.2-72.4-41.1-88.7
				c-2.6,0.7-5.9,2-9.1,2.6s-7.2,2-8.5,2.6c-7.2,2.6-14.3-0.7-17-7.8c-2.6-7.2,0.7-14.3,7.8-17c2.6-1.3,6.5-2,11.1-3.3
				c3.3-0.7,9.8-2.6,11.7-3.3c3.9-2,9.1-2,13,0.7c36.5,21.5,60,90.6,60,128.5C633.5,470.8,627.7,477.3,619.8,477.3z"/>
		</g>
		<g>
			<path fill="#8D81AC" d="M247.5,477.3h-26.1c-7.2,0-13-5.9-13-13c0-38.5,23.5-107,60-128.5c3.9-2.6,8.5-2.6,13-0.7
				c3.3,2,5.2,3.3,7.2,4.6c1.3,1.3,2,2,2.6,2c7.2,2.6,10.4,10.4,7.8,17c-2.6,7.2-10.4,10.4-17,7.8c-2.6-0.7-4.6-2-6.5-3.3
				c-20.2,17.6-35.2,58-39.1,87.4h11.7c7.2,0,13,5.9,13,13S254.6,477.3,247.5,477.3z"/>
		</g>
		<g>
			<path fill="#8D81AC" d="M323.1,303.8c-2,0-3.3,0-4.6,0c-33.9-1.3-54.1-58-54.1-89.3c0-34.6,24.8-62.6,55.4-62.6
				c7.2,0,13,5.9,13,13s-5.9,13-13,13c-15.7,0-28,16.3-28,35.9c0,26.1,18.3,62.6,28,62.6c0.7,0,1.3,0,2,0c0.7,0,11.7,1.3,19.6-11.1
				c3.9-6.5,12.4-7.8,18.3-3.9c6.5,3.9,7.8,12.4,3.9,18.3C351.8,299.3,334.2,303.8,323.1,303.8z"/>
		</g>
		<g>
			<path fill="#8D81AC" d="M514.2,303.8c-11.1,0-28.7-4.6-40.4-22.8c-3.9-6.5-2.6-14.3,3.9-18.3c6.5-3.9,14.3-2.6,18.3,3.9
				c8.5,12.4,19.6,11.1,19.6,11.1c0.7,0,1.3,0,2,0c10.4,0,28-35.9,28-62.6c0-20.2-13-35.9-28-35.9c-7.2,0-13-5.9-13-13s5.9-13,13-13
				c30.7,0,55.4,28,55.4,62.6c0,31.3-20.2,88-54.1,88.7C517.5,303.8,516.2,303.8,514.2,303.8z"/>
		</g>
	</g>
</g>
</svg>
