<?xml version="1.0" encoding="utf-8"?>
<!-- Generator: Adobe Illustrator 18.1.1, SVG Export Plug-In . SVG Version: 6.00 Build 0)  -->
<svg version="1.1" id="Layer_1" xmlns="http://www.w3.org/2000/svg" xmlns:xlink="http://www.w3.org/1999/xlink" x="0px" y="0px"
	 viewBox="-385 263.3 246 70" enable-background="new -385 263.3 246 70" xml:space="preserve">
<g id="Слой_2">
	<g>
		<g>
			<path fill="#8D81AC" d="M-347.2,273.6c3.5,0,6.4,3.4,6.4,7.6s-2.9,11.6-6.4,11.6c-3.5,0-6.4-7.4-6.4-11.6
				C-353.5,277-350.7,273.6-347.2,273.6 M-347.2,269.5c-5.8,0-10.5,5.2-10.5,11.7c0,5.5,3.6,15.7,10.5,15.7s10.5-10.2,10.5-15.7
				C-336.6,274.7-341.4,269.5-347.2,269.5L-347.2,269.5z"/>
		</g>
		<g>
			<path fill="#8D81AC" d="M-339,307.6c4.1,2.9,6.7,10.8,6.7,16.9H-362c0-6.1,2.7-14,6.7-16.9c2.4,1.5,5.2,2.4,8.2,2.4
				C-344.2,310-341.4,309.1-339,307.6 M-355.3,303.3c-0.8,0-1.7,0.3-2.4,0.8c-5.3,3.8-8.4,13.4-8.4,20.3c0,2.3,1.8,4.2,4.1,4.2h29.8
				c2.3,0,4.1-2,4.1-4.2c0-6.9-3.2-16.4-8.4-20.2c-0.7-0.5-1.5-0.8-2.4-0.8c-0.8,0-1.5,0.2-2.2,0.6c-1.8,1.1-3.9,1.8-6,1.8
				c-2.1,0-4.1-0.6-6-1.8C-353.8,303.6-354.5,303.3-355.3,303.3L-355.3,303.3z"/>
		</g>
		<g>
			<path fill="#8D81AC" d="M-357.6,322.3c-0.6,0-1-0.4-1-1c0-5.1,1.4-8.4,4.5-10.7c0.3-0.3,0.8-0.3,1.1,0c0.6,0.4,1.2,0.7,1.8,0.9
				c0.5,0.2,0.8,0.8,0.6,1.3c-0.2,0.5-0.8,0.8-1.3,0.6c-0.5-0.2-1-0.4-1.5-0.7c-2.2,1.8-3.2,4.5-3.2,8.6
				C-356.6,321.9-357,322.3-357.6,322.3z"/>
		</g>
		<g>
			<path fill="#8D81AC" d="M-347.2,314.4c-0.4,0-0.8,0-1.2-0.1c-0.6-0.1-1-0.6-0.9-1.1c0.1-0.6,0.6-1,1.1-0.9c0.3,0,0.7,0.1,1,0.1
				c0.6,0,1,0.4,1,1C-346.1,313.9-346.6,314.4-347.2,314.4z"/>
		</g>
		<g>
			<path fill="#8D81AC" d="M-316.4,326.6h-8c-1.1,0-2-0.9-2-2s0.9-2,2-2h5.8c-0.6-4.6-3.1-11.1-6.3-13.6c-0.4,0.1-0.9,0.3-1.4,0.4
				c-0.5,0.1-1.1,0.3-1.3,0.4c-1.1,0.4-2.2-0.1-2.6-1.2s0.1-2.2,1.2-2.6c0.4-0.2,1-0.3,1.7-0.5c0.5-0.1,1.5-0.4,1.8-0.5
				c0.6-0.3,1.4-0.3,2,0.1c5.6,3.3,9.2,13.9,9.2,19.7C-314.3,325.6-315.2,326.6-316.4,326.6z"/>
		</g>
		<g>
			<path fill="#8D81AC" d="M-373.5,326.6h-4c-1.1,0-2-0.9-2-2c0-5.9,3.6-16.4,9.2-19.7c0.6-0.4,1.3-0.4,2-0.1
				c0.5,0.3,0.8,0.5,1.1,0.7c0.2,0.2,0.3,0.3,0.4,0.3c1.1,0.4,1.6,1.6,1.2,2.6c-0.4,1.1-1.6,1.6-2.6,1.2c-0.4-0.1-0.7-0.3-1-0.5
				c-3.1,2.7-5.4,8.9-6,13.4h1.8c1.1,0,2,0.9,2,2S-372.4,326.6-373.5,326.6z"/>
		</g>
		<g>
			<path fill="#8D81AC" d="M-361.9,300c-0.3,0-0.5,0-0.7,0c-5.2-0.2-8.3-8.9-8.3-13.7c0-5.3,3.8-9.6,8.5-9.6c1.1,0,2,0.9,2,2
				c0,1.1-0.9,2-2,2c-2.4,0-4.3,2.5-4.3,5.5c0,4,2.8,9.6,4.3,9.6c0.1,0,0.2,0,0.3,0c0.1,0,1.8,0.2,3-1.7c0.6-1,1.9-1.2,2.8-0.6
				c1,0.6,1.2,1.9,0.6,2.8C-357.5,299.3-360.2,300-361.9,300z"/>
		</g>
		<g>
			<path fill="#8D81AC" d="M-332.6,300c-1.7,0-4.4-0.7-6.2-3.5c-0.6-1-0.4-2.2,0.6-2.8c1-0.6,2.2-0.4,2.8,0.6c1.3,1.9,3,1.7,3,1.7
				c0.1,0,0.2,0,0.3,0c1.6,0,4.3-5.5,4.3-9.6c0-3.1-2-5.5-4.3-5.5c-1.1,0-2-0.9-2-2s0.9-2,2-2c4.7,0,8.5,4.3,8.5,9.6
				c0,4.8-3.1,13.5-8.3,13.6C-332.1,300-332.3,300-332.6,300z"/>
		</g>
	</g>
	<g>
		<path fill="#333333" d="M-289.1,307h9.1v3.9h-14v-24.9h4.9V307z"/>
		<path fill="#333333" d="M-264.3,299.9h-8.3v7h9.8v3.9h-14.7v-24.9h14.7v3.9h-9.8v6.2h8.3V299.9z"/>
		<path fill="#333333" d="M-249.1,305.5h-6.6l-1.3,5.3h-4.9l7-24.9h5.1l7,24.9h-4.9L-249.1,305.5z M-254.7,301.6h4.6l-2.2-8.8h-0.1
			L-254.7,301.6z"/>
		<path fill="#333333" d="M-241,310.8v-24.9h7.5c2.5,0,4.7,1,6.3,2.9c1.7,1.9,2.5,4.4,2.5,7.5v4.2c0,3.1-0.8,5.5-2.5,7.5
			c-1.7,1.9-3.8,2.9-6.3,2.9L-241,310.8L-241,310.8z M-236.1,289.8v17.1h2.4c1.3,0,2.4-0.6,3.1-1.8c0.7-1.2,1.1-2.7,1.1-4.7v-4.2
			c0-1.9-0.4-3.5-1.1-4.7c-0.7-1.2-1.8-1.8-3.1-1.8H-236.1z"/>
		<path fill="#8D81AC" d="M-208.9,301.5h2.2v3.9h-2.2v5.5h-4.8v-5.5h-8.3l-0.3-3l8.5-16.4h4.8L-208.9,301.5L-208.9,301.5z
			 M-217.8,301.5h4.1v-8.6l-0.1,0l-0.3,0.4L-217.8,301.5z"/>
		<path fill="#333333" d="M-188.3,302.8l0.1,0.1c0,2.7-0.6,4.8-2,6.2c-1.3,1.4-3.3,2.1-5.9,2.1s-4.6-0.8-6.2-2.4
			c-1.5-1.6-2.3-3.8-2.3-6.7v-7.4c0-2.9,0.8-5.1,2.2-6.7c1.5-1.6,3.5-2.4,6-2.4c2.6,0,4.7,0.7,6,2.1c1.3,1.4,2,3.5,2.1,6.3l-0.1,0.1
			h-4.7c0.1-1.6-0.1-2.8-0.7-3.5c-0.5-0.7-1.4-1.1-2.7-1.1c-1.1,0-1.9,0.4-2.5,1.3c-0.6,0.9-0.9,2.2-0.9,3.9v7.5
			c0,1.8,0.3,3.1,0.9,3.9c0.6,0.9,1.5,1.3,2.7,1.3s2-0.3,2.5-1c0.4-0.7,0.7-1.8,0.6-3.5L-188.3,302.8L-188.3,302.8z"/>
		<path fill="#333333" d="M-180.4,300.9v9.9h-4.8v-24.9h8.1c2.4,0,4.4,0.6,5.8,1.9c1.4,1.3,2.1,3.1,2.1,5.4c0,1.3-0.3,2.4-0.9,3.4
			c-0.6,1-1.4,1.7-2.5,2.2c1.3,0.4,2.2,1.1,2.8,2.2c0.6,1,0.8,2.3,0.8,3.8v1.8c0,0.7,0.1,1.4,0.3,2.2c0.2,0.8,0.4,1.3,0.8,1.7v0.4
			h-5c-0.4-0.4-0.6-1-0.8-1.8c-0.1-0.8-0.1-1.7-0.1-2.5v-1.7c0-1.2-0.3-2.2-0.8-2.9s-1.2-1-2.2-1H-180.4z M-180.4,297h3.2
			c1,0,1.7-0.3,2.3-0.9c0.5-0.6,0.8-1.5,0.8-2.6c0-1.1-0.3-2-0.8-2.7s-1.3-1-2.2-1h-3.3V297z"/>
		<path fill="#333333" d="M-159.2,285.9l4.5,18.3h0.1l4.5-18.3h6.3v24.9h-4.8v-7.2l0.4-9.7l-0.1,0l-4.8,16.9h-3.2L-161,294l-0.1,0
			l0.4,9.5v7.2h-4.8v-24.9H-159.2z"/>
	</g>
</g>
</svg>
